<?xml version="1.0" encoding="utf-8"?>
<!-- Generator: Adobe Illustrator 18.1.1, SVG Export Plug-In . SVG Version: 6.00 Build 0)  -->
<svg version="1.1" xmlns="http://www.w3.org/2000/svg" xmlns:xlink="http://www.w3.org/1999/xlink" x="0px" y="0px"
	 viewBox="0 0 20 20" enable-background="new 0 0 20 20" xml:space="preserve">
<g id="Pink">
</g>
<g id="Layer_3">
	<path fill="#B2B2B2" d="M10.1,0.1c-5.5,0-10,4.5-10,10c0,5.5,4.5,10,10,10c5.5,0,10-4.5,10-10C20.1,4.6,15.6,0.1,10.1,0.1z
		 M10.1,2.2c2.2,0,3.9,1.8,3.9,3.9c0,2.2-1.8,3.9-3.9,3.9S6.2,8.3,6.2,6.1C6.2,3.9,7.9,2.2,10.1,2.2z M10.1,19.6
		c-2.8,0-5.3-1.2-7-3.1c0-2.9,2.4-5.1,7-5.1s7,2.1,7,5.1C15.4,18.3,12.9,19.6,10.1,19.6z"/>
</g>
</svg>
